# xmcd CD database file
#
# Track frame offsets:
#	150
#	23837
#	43065
#	68891
#	87553
#	108517
#	132075
#	154168
#	175389
#	197908
#	221825
#
# Disc length: 3182 seconds
#
# Revision: 0
# Processed by: cddbd v1.5.1PL2 Copyright (c) Steve Scherf et al.
# Submitted via: CDex 1.51
#
DISCID=a20c6c0b
DTITLE=Mendays - Instants Cameleons
DYEAR=2006
DGENRE=Jazz
TTITLE0=Beam Me Up
TTITLE1=Free Your Mind
TTITLE2=Come On
TTITLE3=Les Neons De Vegas
TTITLE4=Nowhere To Run
TTITLE5=Trick OfThe Night
TTITLE6=Early Days
TTITLE7=Abysses
TTITLE8=Meme Si Ta Vie Fait Mal
TTITLE9=Getting High
TTITLE10=Asia
EXTD=YEAR: 2006
EXTT0=
EXTT1=
EXTT2=
EXTT3=
EXTT4=
EXTT5=
EXTT6=
EXTT7=
EXTT8=
EXTT9=
EXTT10=
PLAYORDER=
